<svg width="24" height="24" viewBox="0 0 24 24" fill="none" xmlns="http://www.w3.org/2000/svg">
<path d="M4 21H20C21.1046 21 22 20.1046 22 19V8.6C22 7.49543 21.1046 6.6 20 6.6H17L14.5 3H9.5L7 6.6H4C2.89543 6.6 2 7.49543 2 8.6V19C2 20.1046 2.89543 21 4 21Z" stroke="black" stroke-linecap="round" stroke-linejoin="round"/>
<path d="M12 17C14.2091 17 16 15.2091 16 13C16 10.7909 14.2091 9 12 9C9.79086 9 8 10.7909 8 13C8 15.2091 9.79086 17 12 17Z" stroke="black" stroke-linecap="round" stroke-linejoin="round"/>
</svg>
