<svg width="24" height="24" viewBox="0 0 24 24" fill="none" xmlns="http://www.w3.org/2000/svg">
<path d="M10 21C10.5523 21 11 20.5523 11 20C11 19.4477 10.5523 19 10 19C9.44772 19 9 19.4477 9 20C9 20.5523 9.44772 21 10 21Z" stroke="black" stroke-linecap="round" stroke-linejoin="round"/>
<path d="M18 21C18.5523 21 19 20.5523 19 20C19 19.4477 18.5523 19 18 19C17.4477 19 17 19.4477 17 20C17 20.5523 17.4477 21 18 21Z" stroke="black" stroke-linecap="round" stroke-linejoin="round"/>
<path d="M2 3H5.5C5.5 3 5.91294 4.82843 6.17753 6C6.70622 8.34099 7.43235 11.5562 7.85836 13.4425C8.0643 14.3543 8.87398 15 9.8088 15H18.3957C19.3331 15 20.1447 14.3489 20.348 13.4339L22 6" stroke="black" stroke-linecap="round" stroke-linejoin="round"/>
<path d="M22 6H6.5" stroke="black" stroke-linecap="round" stroke-linejoin="round"/>
</svg>
